<svg xmlns="http://www.w3.org/2000/svg" width="54.367" height="7.838" viewBox="0 0 54.367 7.838">
  <g id="Groupe_148" data-name="Groupe 148" transform="translate(-239 -551)">
    <path id="Tracé_471" data-name="Tracé 471" d="M6.125,8.3,8.675,9.838,8,6.938l2.252-1.951L7.285,4.735,6.125,2,4.966,4.735,2,4.987,4.252,6.938l-.677,2.9Z" transform="translate(237 549)"/>
    <path id="Tracé_472" data-name="Tracé 472" d="M6.125,8.3,8.675,9.838,8,6.938l2.252-1.951L7.285,4.735,6.125,2,4.966,4.735,2,4.987,4.252,6.938l-.677,2.9Z" transform="translate(248.529 549)"/>
    <path id="Tracé_473" data-name="Tracé 473" d="M6.125,8.3,8.675,9.838,8,6.938l2.252-1.951L7.285,4.735,6.125,2,4.966,4.735,2,4.987,4.252,6.938l-.677,2.9Z" transform="translate(260.058 549)"/>
    <path id="Tracé_474" data-name="Tracé 474" d="M6.125,8.3,8.675,9.838,8,6.938l2.252-1.951L7.285,4.735,6.125,2,4.966,4.735,2,4.987,4.252,6.938l-.677,2.9Z" transform="translate(271.587 549)" fill="#8f8f8f"/>
    <path id="Tracé_475" data-name="Tracé 475" d="M6.125,8.3,8.675,9.838,8,6.938l2.252-1.951L7.285,4.735,6.125,2,4.966,4.735,2,4.987,4.252,6.938l-.677,2.9Z" transform="translate(283.116 549)" fill="#8f8f8f"/>
  </g>
</svg>
