<svg xmlns="http://www.w3.org/2000/svg" width="39" height="39.003" viewBox="0 0 39 39.003">
  <path id="Tracé_916" data-name="Tracé 916" d="M42,18.428H27.31l5.937-6.11A15.252,15.252,0,0,0,11.839,12.1a14.9,14.9,0,0,0,0,21.213,15.21,15.21,0,0,0,21.408,0,14.113,14.113,0,0,0,4.42-10.6H42a20.24,20.24,0,0,1-5.72,13.629,19.618,19.618,0,0,1-27.562,0A19.154,19.154,0,0,1,8.676,9.089a19.474,19.474,0,0,1,27.41,0L42,3ZM23.583,13.834v9.209l7.584,4.507-1.56,2.622-9.274-5.5V13.834Z" transform="translate(-3.001 -3)"/>
</svg>
