<?xml version="1.0" encoding="UTF-8"?>
<svg id="Calque_2" data-name="Calque 2" xmlns="http://www.w3.org/2000/svg" viewBox="0 0 23.27 24.57">
  <g id="Calque_1-2" data-name="Calque 1">
    <path id="Tracé_275" data-name="Tracé 275" d="m11.54,9.36h2.31v-3.51h3.46v-2.34h-3.46V0h-2.31v3.51h-3.46v2.34h3.46v3.51Zm-4.62,10.53c-1.29-.02-2.35,1.02-2.37,2.31-.02,1.29,1.02,2.35,2.31,2.37,1.29.02,2.35-1.02,2.37-2.31,0-.01,0-.02,0-.03.01-1.28-1.02-2.33-2.3-2.34,0,0,0,0,0,0Zm11.54,0c-1.29-.02-2.35,1.02-2.37,2.31-.02,1.29,1.02,2.35,2.31,2.37,1.29.02,2.35-1.02,2.37-2.31,0-.01,0-.02,0-.03.01-1.28-1.02-2.33-2.3-2.34,0,0,0,0,0,0Zm-10.27-5.85h8.6c.84,0,1.62-.46,2.02-1.21l4.46-8.2-2.01-1.12-4.47,8.19h-8.1L3.78,1.17H0v2.34h2.31l4.16,8.88-1.56,2.85c-.62,1.13-.21,2.56.92,3.18.34.19.71.29,1.1.29h13.85v-2.34H6.93l1.27-2.34Z"/>
  </g>
</svg>