<svg xmlns="http://www.w3.org/2000/svg" width="21.668" height="25.279" viewBox="0 0 21.668 25.279">
  <path id="Tracé_477" data-name="Tracé 477" d="M22.26,7.019H19.853a6.019,6.019,0,1,0-12.038,0H5.408A2.415,2.415,0,0,0,3,9.426V23.872a2.415,2.415,0,0,0,2.408,2.408H22.26a2.415,2.415,0,0,0,2.408-2.408V9.426A2.415,2.415,0,0,0,22.26,7.019ZM13.834,3.408a3.606,3.606,0,0,1,3.611,3.611H10.223A3.606,3.606,0,0,1,13.834,3.408ZM22.26,23.872H5.408V9.426H22.26Zm-8.426-9.63a3.606,3.606,0,0,1-3.611-3.611H7.815a6.019,6.019,0,0,0,12.038,0H17.445A3.606,3.606,0,0,1,13.834,14.242Z" transform="translate(-3 -1)"/>
</svg>
