<svg xmlns="http://www.w3.org/2000/svg" width="26.882" height="19.55" viewBox="0 0 26.882 19.55">
  <path id="Tracé_476" data-name="Tracé 476" d="M24.216,8.888H20.55V4H3.444A2.451,2.451,0,0,0,1,6.444V19.885H3.444a3.666,3.666,0,0,0,7.331,0h7.331a3.666,3.666,0,0,0,7.331,0h2.444V13.775Zm-.611,1.833L26,13.775H20.55V10.72ZM7.109,21.107a1.222,1.222,0,1,1,1.222-1.222A1.225,1.225,0,0,1,7.109,21.107Zm2.713-3.666a3.622,3.622,0,0,0-5.425,0H3.444v-11H18.107v11Zm11.95,3.666a1.222,1.222,0,1,1,1.222-1.222A1.225,1.225,0,0,1,21.772,21.107Z" transform="translate(-1 -4)"/>
</svg>
